
<svg width="559px" height="173px" viewBox="720 911 559 173" version="1.1" xmlns="http://www.w3.org/2000/svg" xmlns:xlink="http://www.w3.org/1999/xlink">
    <!-- Generator: Sketch 39.1 (31720) - http://www.bohemiancoding.com/sketch -->
    <desc>Created with Sketch.</desc>
    <defs></defs>
    <g id="phoenix-logo" stroke="none" stroke-width="1" fill="none" fill-rule="evenodd" transform="translate(720.000000, 911.000000)">
        <g id="Group">
            <g id="Shape">
                <path d="M28.426,60.146 C28.426,60.146 36.262,53.293 58.498,45.729 C60.898,44.912 62.891,44.592 63.484,44.415 C63.673,44.357 63.916,44.28 64.207,44.188 C76.809,40.183 87.697,40.193 96.572,44.216 C110.385,50.478 121.472,56.778 130.687,67.164 C139.148,76.703 146.183,85.49 146.962,86.47 C149.788,89.526 153.134,92.938 155.331,94.958 C156.097,90.677 156.505,86.272 156.505,81.771 C156.505,40.442 123.001,6.938 81.671,6.938 C40.343,6.938 6.839,40.442 6.839,81.771 C6.839,123.101 40.343,156.604 81.671,156.604 C82.357,156.604 83.036,156.583 83.716,156.565 C75.605,150.311 64.521,138.442 61.753,118.995 C59.618,103.997 59.803,98.733 59.472,94.911 C59.119,90.856 58.845,89.554 57.443,81.154 C55.322,68.459 51.068,65.376 49.154,63.709 C45.279,60.333 28.426,60.146 28.426,60.146 L28.426,60.146 Z" fill="#EA592D"></path>
                <path d="M0.34,81.77 C0.34,126.689 36.754,163.103 81.672,163.103 C88.26,163.103 95.453,162.082 101.586,160.603 C98.699,158.787 97.191,157.828 95.107,156.724 L95.117,156.699 C94.883,156.594 71.635,145.83 67.693,118.148 C65.611,103.523 65.531,98.49 65.472,94.814 C65.409,91.003 65.372,88.704 63.284,79.785 C59.827,65.015 54.723,62.04 49.79,60.259 C49.194,60.043 48.681,59.858 48.296,59.655 C47.726,59.353 46.648,58.954 44.263,58.08 C43.333,57.739 42.04,57.265 40.72,56.764 C46.718,54.977 55.759,52.635 60.003,51.536 C62.712,50.835 64.501,50.371 65.204,50.161 C65.419,50.097 65.694,50.01 66.022,49.905 C70.176,48.584 82.819,44.566 94.094,49.679 C107.207,55.624 117.686,61.55 126.198,71.144 C135.016,81.086 142.262,90.198 142.335,90.288 L142.481,90.458 C148.553,97.034 151.848,100.124 153.866,101.501 C153.862,101.513 153.86,101.522 153.856,101.534 C155.799,102.827 157.743,104.081 159.684,104.782 C161.834,97.483 163.004,89.765 163.004,81.769 C163.004,36.85 126.59,0.436 81.67,0.436 C36.754,0.437 0.34,36.851 0.34,81.77 L0.34,81.77 Z"></path>
                <path d="M72.494,53.377 C72.993,56.065 76.258,57.712 79.789,57.057 C83.318,56.402 85.774,53.691 85.275,51.002" fill="#EA592D"></path>
            </g>
            <path d="M131.504,94.137 C143.406,96.166 152.123,101.483 159.9,109.283 C165.129,114.527 171.654,118.48 176.287,122.013 C164.559,124.586 142.621,112.301 131.504,94.137 L131.504,94.137 Z" id="Shape" fill="#EA592D"></path>
            <path d="M226.488,160.354 C221.316,148.737 212.342,146.713 201.406,147.459 C176.377,149.168 157.283,138.586 143.342,118.066 C159.151,132.218 177.742,135.906 198.397,134.414 C216.984,133.072 226.938,142.633 226.488,160.354 L226.488,160.354 Z" id="Shape" fill="#EA592D"></path>
            <path d="M78.504,140.023 C87.242,143.078 96.402,147.904 106.031,149.173 C115.248,150.384 124.955,147.898 134.781,147.005 C131.869,150.441 129.742,152.948 127.615,155.454 C130.804,157.577 133.73,160.757 137.23,161.624 C147.919,164.27 159.537,164.128 167.371,172.353 C155.219,171.939 142.66,171.611 130.111,171.064 C108.512,170.121 88.793,157.861 78.504,140.023 L78.504,140.023 Z" id="Shape" fill="#EA592D"></path>
            <path d="M230.504,169.383 C215.336,176.875 209.432,160.83 197.246,157.447 C213.818,149.18 220.424,163.363 230.504,169.383 L230.504,169.383 Z" id="Shape" fill="#EA592D"></path>
            <g transform="translate(246.000000, 129.000000)" id="Shape" fill="#EA592D">
                <polygon points="0.219 0.795 17.453 0.795 17.453 2.715 2.428 2.715 2.428 15.293 15.149 15.293 15.149 17.213 2.428 17.213 2.428 32.43 0.219 32.43 0.219 0.795"></polygon>
                <path d="M31.131,0.795 L40.203,0.795 C46.492,0.795 50.572,3.1 50.572,9.149 C50.572,14.188 47.453,17.118 42.461,17.741 L51.197,32.43 L48.652,32.43 L40.06,17.885 L33.339,17.885 L33.339,32.43 L31.13,32.43 L31.13,0.795 L31.131,0.795 Z M39.629,16.061 C45.197,16.061 48.317,13.805 48.317,9.149 C48.317,4.397 45.198,2.669 39.629,2.669 L33.34,2.669 L33.34,16.062 L39.629,16.062 L39.629,16.061 Z"></path>
                <path d="M72.123,0.795 L74.332,0.795 L85.469,32.43 L83.164,32.43 L79.469,21.58 L66.94,21.58 L63.196,32.43 L60.987,32.43 L72.123,0.795 L72.123,0.795 Z M67.611,19.709 L78.843,19.709 L76.827,13.805 C75.53,10.061 74.427,6.748 73.323,2.86 L73.13,2.86 C72.026,6.749 70.923,10.061 69.626,13.805 L67.611,19.709 L67.611,19.709 Z"></path>
                <path d="M98.521,0.795 L101.642,0.795 L108.265,19.373 C109.081,21.678 109.947,24.029 110.761,26.381 L110.954,26.381 C111.77,24.029 112.538,21.678 113.354,19.373 L119.93,0.795 L123.098,0.795 L123.098,32.43 L120.938,32.43 L120.938,11.645 C120.938,9.053 121.083,5.741 121.225,3.1 L121.034,3.1 L118.587,10.157 L111.771,28.975 L109.849,28.975 L102.986,10.157 L100.49,3.1 L100.297,3.1 C100.393,5.741 100.586,9.053 100.586,11.645 L100.586,32.43 L98.522,32.43 L98.522,0.795 L98.521,0.795 Z"></path>
                <polygon points="140.426 0.795 157.754 0.795 157.754 2.715 142.633 2.715 142.633 14.668 155.307 14.668 155.307 16.588 142.633 16.588 142.633 30.51 158.235 30.51 158.235 32.43 140.426 32.43"></polygon>
                <path d="M169.85,0.795 L172.153,0.795 L176.137,19.42 C176.858,22.877 177.578,26.334 178.297,29.742 L178.49,29.742 C179.258,26.334 180.074,22.877 180.937,19.42 L185.882,0.795 L188.138,0.795 L193.081,19.42 C193.946,22.877 194.763,26.285 195.626,29.742 L195.817,29.742 C196.538,26.285 197.163,22.877 197.881,19.42 L201.865,0.795 L204.025,0.795 L196.968,32.43 L194.521,32.43 L188.759,10.733 C188.183,8.237 187.607,6.077 187.079,3.581 L186.888,3.581 C186.359,6.077 185.687,8.237 185.111,10.733 L179.447,32.43 L177.047,32.43 L169.85,0.795 L169.85,0.795 Z"></path>
                <path d="M215.689,16.492 C215.689,6.508 221.113,0.219 228.699,0.219 C236.332,0.219 241.756,6.508 241.756,16.492 C241.756,26.525 236.332,33.006 228.699,33.006 C221.113,33.006 215.689,26.525 215.689,16.492 L215.689,16.492 Z M239.404,16.492 C239.404,7.756 235.131,2.234 228.699,2.234 C222.265,2.234 217.994,7.755 217.994,16.492 C217.994,25.277 222.265,30.99 228.699,30.99 C235.131,30.99 239.404,25.277 239.404,16.492 L239.404,16.492 Z"></path>
                <path d="M257.016,0.795 L266.088,0.795 C272.377,0.795 276.457,3.1 276.457,9.149 C276.457,14.188 273.338,17.118 268.344,17.741 L277.082,32.43 L274.537,32.43 L265.943,17.885 L259.224,17.885 L259.224,32.43 L257.015,32.43 L257.015,0.795 L257.016,0.795 Z M265.512,16.061 C271.08,16.061 274.201,13.805 274.201,9.149 C274.201,4.397 271.08,2.669 265.512,2.669 L259.225,2.669 L259.225,16.062 L265.512,16.062 L265.512,16.061 Z"></path>
                <polygon points="291.143 0.795 293.352 0.795 293.352 18.365 293.448 18.365 308.761 0.795 311.402 0.795 301.322 12.508 312.795 32.43 310.25 32.43 299.785 14.188 293.353 21.534 293.353 32.43 291.144 32.43 291.144 0.795"></polygon>
            </g>
            <g transform="translate(193.000000, 52.000000)" id="Shape" fill="#EA592D">
                <path d="M0.57,1.917 L20.164,1.917 C33.957,1.917 44.23,6.672 44.23,21.131 C44.23,34.923 33.957,41.296 20.546,41.296 L11.603,41.296 L11.603,64.124 L0.57,64.124 L0.57,1.917 L0.57,1.917 Z M19.689,32.449 C28.916,32.449 33.386,28.74 33.386,21.13 C33.386,13.33 28.534,10.762 19.308,10.762 L11.603,10.762 L11.603,32.449 L19.689,32.449 L19.689,32.449 Z"></path>
                <polygon points="55.924 1.917 66.957 1.917 66.957 26.933 92.164 26.933 92.164 1.917 103.197 1.917 103.197 64.124 92.164 64.124 92.164 36.54 66.957 36.54 66.957 64.124 55.924 64.124"></polygon>
                <path d="M115.746,32.735 C115.746,12.665 126.971,0.775 143.141,0.775 C159.407,0.775 170.631,12.665 170.631,32.735 C170.631,52.899 159.406,65.266 143.141,65.266 C126.971,65.266 115.746,52.898 115.746,32.735 L115.746,32.735 Z M159.215,32.735 C159.215,18.847 152.938,10.381 143.141,10.381 C133.344,10.381 127.067,18.847 127.067,32.735 C127.067,46.717 133.344,55.658 143.141,55.658 C152.938,55.658 159.215,46.717 159.215,32.735 L159.215,32.735 Z"></path>
                <polygon points="183.086 1.917 220.563 1.917 220.563 11.238 194.12 11.238 194.12 27.122 216.474 27.122 216.474 36.444 194.12 36.444 194.12 54.801 221.513 54.801 221.513 64.123 183.087 64.123 183.087 1.917"></polygon>
                <path d="M234.254,1.917 L245.574,1.917 L264.976,36.921 L271.351,50.141 L271.732,50.141 C271.255,43.768 270.304,35.874 270.304,28.93 L270.304,1.917 L280.863,1.917 L280.863,64.124 L269.543,64.124 L250.139,29.121 L243.768,15.9 L243.387,15.9 C243.862,22.463 244.813,29.977 244.813,36.921 L244.813,64.124 L234.254,64.124 L234.254,1.917 L234.254,1.917 Z"></path>
                <polygon points="296.645 1.917 307.68 1.917 307.68 64.124 296.645 64.124"></polygon>
                <path d="M334.5,32.069 L317.949,1.917 L330.219,1.917 L337.069,15.709 C338.59,18.562 339.923,21.511 341.825,25.221 L342.206,25.221 C343.727,21.512 344.964,18.562 346.392,15.709 L352.955,1.917 L364.654,1.917 L348.103,32.544 L365.794,64.123 L353.524,64.123 L345.915,49.475 C344.298,46.241 342.776,43.102 340.874,39.297 L340.493,39.297 C338.876,43.102 337.45,46.24 335.927,49.475 L328.509,64.123 L316.81,64.123 L334.5,32.069 L334.5,32.069 Z"></path>
            </g>
        </g>
    </g>
</svg>